<svg width="24" height="24" viewBox="0 0 24 24" fill="none" xmlns="http://www.w3.org/2000/svg">
<path fill-rule="evenodd" clip-rule="evenodd" d="M12.9521 14.4422C12.9521 14.452 12.9523 14.4618 12.9527 14.4714V16.1442C12.9527 16.6699 12.5265 17.0961 12.0008 17.0961C11.475 17.0961 11.0488 16.6699 11.0488 16.1442V6.15388C11.0488 5.73966 10.713 5.40388 10.2988 5.40388C9.8846 5.40388 9.54881 5.73966 9.54881 6.15388V16.1442C9.54881 17.4984 10.6466 18.5961 12.0008 18.5961C13.3549 18.5961 14.4527 17.4983 14.4527 16.1442V6.15388C14.4527 6.14309 14.4525 6.13235 14.452 6.12167C14.4347 3.84237 12.5816 2 10.2983 2C8.00413 2 6.14438 3.85976 6.14438 6.15388V14.4422C6.14438 14.4492 6.14447 14.4561 6.14466 14.463V16.1442C6.14466 19.3783 8.7664 22 12.0005 22C15.2346 22 17.8563 19.3783 17.8563 16.1442V9.55775C17.8563 9.14354 17.5205 8.80775 17.1063 8.80775C16.6921 8.80775 16.3563 9.14354 16.3563 9.55775V16.1442C16.3563 18.5498 14.4061 20.5 12.0005 20.5C9.59482 20.5 7.64466 18.5498 7.64466 16.1442V9.55775C7.64466 9.55084 7.64457 9.54394 7.64438 9.53706L7.64438 6.15388C7.64438 4.68819 8.83256 3.5 10.2983 3.5C11.764 3.5 12.9521 4.68818 12.9521 6.15388L12.9521 14.4422Z" fill="#344054"/>
</svg>
