<svg width="24" height="24" viewBox="0 0 24 24" fill="none" xmlns="http://www.w3.org/2000/svg">
<path fill-rule="evenodd" clip-rule="evenodd" d="M12.7498 2.79175C12.7498 2.37753 12.414 2.04175 11.9998 2.04175C11.5856 2.04175 11.2498 2.37753 11.2498 2.79175V4.39876C9.28109 4.67329 7.76578 6.36366 7.76578 8.40795C7.76578 10.0954 8.81249 11.6058 10.3925 12.1984L13.0808 13.2066C14.0753 13.5795 14.7342 14.5303 14.7342 15.5925C14.7342 16.9998 13.5933 18.1407 12.186 18.1407H11.1291C10.1 18.1407 9.26578 17.3064 9.26578 16.2773C9.26578 15.8631 8.93 15.5273 8.51578 15.5273C8.10157 15.5273 7.76578 15.8631 7.76578 16.2773C7.76578 18.1348 9.27161 19.6407 11.1291 19.6407H11.2498V21.2083C11.2498 21.6225 11.5856 21.9583 11.9998 21.9583C12.414 21.9583 12.7498 21.6225 12.7498 21.2083V19.6017C14.7187 19.3274 16.2342 17.6369 16.2342 15.5925C16.2342 13.905 15.1875 12.3946 13.6075 11.8021L10.9192 10.7939C9.92465 10.4209 9.26578 9.47013 9.26578 8.40795C9.26578 7.00062 10.4066 5.85976 11.814 5.85976H12.8708C13.8999 5.85976 14.7342 6.69401 14.7342 7.72311C14.7342 8.13732 15.07 8.47311 15.4842 8.47311C15.8984 8.47311 16.2342 8.13732 16.2342 7.72311C16.2342 5.86558 14.7284 4.35976 12.8708 4.35976H12.7498V2.79175Z" fill="#344054"/>
</svg>
