<svg width="24" height="24" viewBox="0 0 24 24" fill="none" xmlns="http://www.w3.org/2000/svg">
<path fill-rule="evenodd" clip-rule="evenodd" d="M9.2039 4.50018L14.7957 4.50002C14.9946 4.50001 15.1854 4.57902 15.326 4.71967L19.2801 8.67356C19.4208 8.81421 19.4998 9.00497 19.4998 9.20388L19.5 14.7957C19.5 14.9946 19.421 15.1854 19.2803 15.326L15.3265 19.2801C15.1858 19.4208 14.995 19.4998 14.7961 19.4998L9.20433 19.5C9.00541 19.5 8.81465 19.421 8.67399 19.2803L4.71988 15.3264C4.57922 15.1858 4.5002 14.995 4.50019 14.7961L4.50003 9.20431C4.50002 9.0054 4.57904 8.81463 4.71969 8.67397L8.67357 4.71986C8.81422 4.5792 9.00498 4.50018 9.2039 4.50018ZM14.7957 3.00002L9.20385 3.00018C8.60712 3.00019 8.03483 3.23726 7.61288 3.65923L3.65899 7.61335C3.23705 8.03531 3.00001 8.60762 3.00003 9.20435L3.00019 14.7962C3.00021 15.3929 3.23728 15.9652 3.65925 16.3871L7.61336 20.341C8.03533 20.763 8.60763 21 9.20437 21L14.7962 20.9998C15.3929 20.9998 15.9652 20.7627 16.3871 20.3408L20.341 16.3867C20.763 15.9647 21 15.3924 21 14.7956L20.9998 9.20384C20.9998 8.6071 20.7627 8.03481 20.3408 7.61287L16.3867 3.65898C15.9647 3.23703 15.3924 3 14.7957 3.00002ZM12.0004 7.81075C12.4146 7.81075 12.7504 8.14653 12.7504 8.56075V12.7803C12.7504 13.1945 12.4146 13.5303 12.0004 13.5303C11.5862 13.5303 11.2504 13.1945 11.2504 12.7803V8.56075C11.2504 8.14653 11.5862 7.81075 12.0004 7.81075ZM11.0994 15.3303C11.0994 14.8332 11.5024 14.4303 11.9994 14.4303H12.0002C12.4972 14.4303 12.9002 14.8332 12.9002 15.3303C12.9002 15.8274 12.4972 16.2303 12.0002 16.2303H11.9994C11.5024 16.2303 11.0994 15.8274 11.0994 15.3303Z" fill="#344054"/>
</svg>
