<svg width="24" height="24" viewBox="0 0 24 24" fill="none" xmlns="http://www.w3.org/2000/svg">
<path fill-rule="evenodd" clip-rule="evenodd" d="M14.4991 4.75C13.2095 4.75 12.1641 5.79542 12.1641 7.085C12.1641 8.37459 13.2095 9.42 14.4991 9.42C15.7886 9.42 16.8341 8.37458 16.8341 7.085C16.8341 5.79541 15.7886 4.75 14.4991 4.75ZM2.74805 7.83472H10.7373C11.0859 9.5938 12.6376 10.92 14.4991 10.92C16.3605 10.92 17.9122 9.5938 18.2608 7.83472H21.248C21.6623 7.83472 21.998 7.49893 21.998 7.08472C21.998 6.6705 21.6623 6.33472 21.248 6.33472H18.2607C17.9119 4.57592 16.3603 3.25 14.4991 3.25C12.6378 3.25 11.0863 4.57592 10.7374 6.33472H2.74805C2.33383 6.33472 1.99805 6.6705 1.99805 7.08472C1.99805 7.49893 2.33383 7.83472 2.74805 7.83472ZM5.73918 16.1653H2.74902C2.33481 16.1653 1.99902 16.5011 1.99902 16.9153C1.99902 17.3295 2.33481 17.6653 2.74902 17.6653H5.7393C6.08815 19.4241 7.6397 20.75 9.50094 20.75C11.3622 20.75 12.9137 19.4241 13.2626 17.6653H21.249C21.6632 17.6653 21.999 17.3295 21.999 16.9153C21.999 16.5011 21.6632 16.1653 21.249 16.1653H13.2627C12.9141 14.4062 11.3624 13.08 9.50094 13.08C7.63949 13.08 6.0878 14.4062 5.73918 16.1653ZM11.8359 16.915C11.8359 15.6254 10.7905 14.58 9.50094 14.58C8.21136 14.58 7.16594 15.6254 7.16594 16.915C7.16594 18.2046 8.21135 19.25 9.50094 19.25C10.7905 19.25 11.8359 18.2046 11.8359 16.915Z" fill="#344054"/>
</svg>
