<svg width="24" height="24" viewBox="0 0 24 24" fill="none" xmlns="http://www.w3.org/2000/svg">
<path fill-rule="evenodd" clip-rule="evenodd" d="M3.80201 9.75037C3.60577 10.4671 3.50098 11.2216 3.50098 12.0005C3.50098 12.7794 3.60574 13.5337 3.80194 14.2504H7.36597C7.29054 13.5256 7.25098 12.7719 7.25098 12C7.25098 11.2283 7.29051 10.4749 7.3659 9.75037H3.80201ZM2.51409 8.8299C2.18125 9.82621 2.00098 10.8923 2.00098 12.0005C2.00098 13.1089 2.18133 14.1753 2.5143 15.1717C2.52577 15.2208 2.54206 15.268 2.56264 15.3129C3.92942 19.2075 7.63858 22.0004 12 22.0004C16.3699 22.0004 20.0849 19.1968 21.4453 15.2904C21.4581 15.2598 21.469 15.2281 21.4778 15.1956C21.8158 14.1923 21.9991 13.1178 21.9991 12.0005C21.9991 10.8836 21.816 9.80948 21.4781 8.80647C21.4692 8.77299 21.458 8.74044 21.4447 8.70898C20.0839 4.80348 16.3693 2.00061 12 2.00061C7.63901 2.00061 3.93016 4.79295 2.56305 8.68696C2.54215 8.73235 2.52564 8.78018 2.51409 8.8299ZM4.37087 8.25037H7.58013C7.79161 7.09912 8.09885 6.05258 8.48381 5.16218C8.66123 4.7518 8.85829 4.36734 9.07479 4.01753C7.01633 4.77225 5.33096 6.30064 4.37087 8.25037ZM12 3.50061C11.6991 3.50061 11.3513 3.63849 10.9678 4.01363C10.581 4.39209 10.1983 4.97651 9.86064 5.75744C9.55411 6.46644 9.29692 7.30923 9.10758 8.25037L14.8929 8.25037C14.7035 7.30925 14.4462 6.46647 14.1397 5.75747C13.802 4.97655 13.4192 4.39213 13.0323 4.01365C12.6488 3.6385 12.3009 3.50061 12 3.50061ZM15.1259 9.75037L8.87461 9.75037C8.79424 10.4655 8.75098 11.2193 8.75098 12C8.75098 12.7809 8.79427 13.5349 8.8747 14.2504L15.1258 14.2504C15.2062 13.5349 15.2495 12.7809 15.2495 12C15.2495 11.2193 15.2063 10.4655 15.1259 9.75037ZM16.6345 14.2504C16.71 13.5256 16.7495 12.7719 16.7495 12C16.7495 11.2282 16.71 10.4749 16.6346 9.75037L20.198 9.75037C20.3943 10.4671 20.4991 11.2216 20.4991 12.0005C20.4991 12.7793 20.3943 13.5337 20.1981 14.2504H16.6345ZM14.8927 15.7504L9.1077 15.7504C9.29704 16.6914 9.55418 17.5341 9.86066 18.2431C10.1983 19.0242 10.581 19.6087 10.9679 19.9873C11.3514 20.3625 11.6992 20.5004 12 20.5004C12.3009 20.5004 12.6487 20.3625 13.0323 19.9872C13.4192 19.6087 13.802 19.0241 14.1397 18.243C14.4462 17.5341 14.7034 16.6913 14.8927 15.7504ZM14.9252 19.9835C15.1418 19.6335 15.339 19.2489 15.5165 18.8383C15.9014 17.9479 16.2087 16.9015 16.4202 15.7504H19.6293C18.6692 17.7003 16.9838 19.2288 14.9252 19.9835ZM9.07507 19.9836C8.85845 19.6336 8.6613 19.2489 8.48379 18.8383C8.09891 17.9479 7.79172 16.9015 7.58024 15.7504H4.37074C5.33085 17.7003 7.01638 19.2289 9.07507 19.9836ZM19.6292 8.25037H16.4203C16.2088 7.0991 15.9015 6.05255 15.5165 5.16213C15.339 4.7518 15.142 4.36738 14.9255 4.0176C16.9838 4.77235 18.6691 6.3007 19.6292 8.25037Z" fill="#344054"/>
</svg>
