<svg width="24" height="24" viewBox="0 0 24 24" fill="none" xmlns="http://www.w3.org/2000/svg">
<path fill-rule="evenodd" clip-rule="evenodd" d="M9.20387 4.50018L14.7957 4.50002C14.9946 4.50001 15.1853 4.57902 15.326 4.71967L19.2801 8.67356C19.4208 8.81421 19.4998 9.00497 19.4998 9.20388L19.5 14.7957C19.5 14.9946 19.421 15.1854 19.2803 15.326L15.3264 19.2801C15.1858 19.4208 14.995 19.4998 14.7961 19.4998L9.2043 19.5C9.00538 19.5 8.81462 19.421 8.67396 19.2803L4.71985 15.3264C4.57919 15.1858 4.50017 14.995 4.50016 14.7961L4.5 9.20431C4.49999 9.0054 4.57901 8.81463 4.71965 8.67397L8.67354 4.71986C8.81419 4.5792 9.00495 4.50018 9.20387 4.50018ZM14.7956 3.00002L9.20382 3.00018C8.60709 3.00019 8.0348 3.23726 7.61285 3.65923L3.65896 7.61335C3.23702 8.03531 2.99998 8.60762 3 9.20435L3.00016 14.7962C3.00018 15.3929 3.23725 15.9652 3.65922 16.3871L7.61333 20.341C8.0353 20.763 8.6076 21 9.20434 21L14.7961 20.9998C15.3929 20.9998 15.9652 20.7627 16.3871 20.3408L20.341 16.3867C20.7629 15.9647 21 15.3924 21 14.7956L20.9998 9.20384C20.9998 8.6071 20.7627 8.03481 20.3407 7.61287L16.3866 3.65898C15.9647 3.23703 15.3924 3 14.7956 3.00002ZM11.0993 8.66982C11.0993 9.16688 11.5023 9.56982 11.9993 9.56982H12.0001C12.4971 9.56982 12.9001 9.16688 12.9001 8.66982C12.9001 8.17276 12.4971 7.76982 12.0001 7.76982H11.9993C11.5023 7.76982 11.0993 8.17276 11.0993 8.66982ZM12 16.1892C11.5858 16.1892 11.25 15.8534 11.25 15.4392V11.2148C11.25 10.8006 11.5858 10.4648 12 10.4648C12.4143 10.4648 12.75 10.8006 12.75 11.2148V15.4392C12.75 15.8534 12.4143 16.1892 12 16.1892Z" fill="#344054"/>
</svg>
