<svg width="24" height="24" viewBox="0 0 24 24" fill="none" xmlns="http://www.w3.org/2000/svg">
<path fill-rule="evenodd" clip-rule="evenodd" d="M8.12418 4.53906L15.8733 4.53906C16.1412 4.53906 16.3888 4.68201 16.5228 4.91406L20.3973 11.625C20.5313 11.857 20.5313 12.1429 20.3973 12.375L16.5228 19.0859C16.3888 19.3179 16.1412 19.4609 15.8733 19.4609H8.12418C7.85623 19.4609 7.60863 19.3179 7.47466 19.0859L3.60011 12.375C3.46614 12.1429 3.46614 11.857 3.60012 11.625L7.47466 4.91406C7.60863 4.68201 7.85623 4.53906 8.12418 4.53906ZM15.8733 3.03906H8.12418C7.32033 3.03906 6.57754 3.46791 6.17562 4.16406L2.30108 10.875C1.89915 11.5711 1.89915 12.4288 2.30108 13.125L6.17562 19.8359C6.57754 20.532 7.32033 20.9609 8.12418 20.9609H15.8733C16.6771 20.9609 17.4199 20.532 17.8218 19.8359L21.6964 13.125C22.0983 12.4288 22.0983 11.5711 21.6964 10.875L17.8218 4.16406C17.4199 3.46791 16.6771 3.03906 15.8733 3.03906ZM11.0993 8.66982C11.0993 9.16688 11.5023 9.56982 11.9993 9.56982H12.0001C12.4971 9.56982 12.9001 9.16688 12.9001 8.66982C12.9001 8.17277 12.4971 7.76982 12.0001 7.76982H11.9993C11.5023 7.76982 11.0993 8.17277 11.0993 8.66982ZM12.0001 16.1892C11.5859 16.1892 11.2501 15.8534 11.2501 15.4392V11.2148C11.2501 10.8006 11.5859 10.4648 12.0001 10.4648C12.4143 10.4648 12.7501 10.8006 12.7501 11.2148V15.4392C12.7501 15.8534 12.4143 16.1892 12.0001 16.1892Z" fill="#344054"/>
</svg>
