<svg width="24" height="24" viewBox="0 0 24 24" fill="none" xmlns="http://www.w3.org/2000/svg">
<path fill-rule="evenodd" clip-rule="evenodd" d="M15.1008 19.247C14.6866 19.247 14.3508 18.9112 14.3508 18.497L14.3508 14.245H12.8508V18.497C12.8508 19.7396 13.8581 20.747 15.1008 20.747H18.5008C19.7434 20.747 20.7508 19.7396 20.7508 18.497L20.7508 5.49609C20.7508 4.25345 19.7434 3.24609 18.5008 3.24609H15.1008C13.8581 3.24609 12.8508 4.25345 12.8508 5.49609V9.74501L14.3508 9.74501V5.49609C14.3508 5.08188 14.6866 4.74609 15.1008 4.74609L18.5008 4.74609C18.915 4.74609 19.2508 5.08188 19.2508 5.49609L19.2508 18.497C19.2508 18.9112 18.915 19.247 18.5008 19.247H15.1008ZM3.25079 11.9984C3.25079 12.2144 3.3421 12.4091 3.48823 12.546L8.09489 17.1556C8.38769 17.4485 8.86257 17.4487 9.15555 17.1559C9.44854 16.8631 9.44869 16.3882 9.15589 16.0952L5.81122 12.7484L16.0008 12.7484C16.415 12.7484 16.7508 12.4127 16.7508 11.9984C16.7508 11.5842 16.415 11.2484 16.0008 11.2484L5.81535 11.2484L9.15591 7.90554C9.4487 7.61255 9.44853 7.13767 9.15553 6.84488C8.86254 6.55209 8.38767 6.55226 8.09487 6.84525L3.52315 11.4202C3.35679 11.5577 3.25079 11.7657 3.25079 11.9984Z" fill="#344054"/>
</svg>
