<svg width="24" height="24" viewBox="0 0 24 24" fill="none" xmlns="http://www.w3.org/2000/svg">
<path fill-rule="evenodd" clip-rule="evenodd" d="M5.49938 5.4479C5.63261 5.32659 5.80971 5.25262 6.00411 5.25255L14.9995 5.2494C15.4138 5.24925 15.7498 5.58485 15.7499 5.99897C15.7501 6.4131 15.4143 6.74893 15 6.74908L7.80985 6.7516L18.5285 17.4703C18.8214 17.7632 18.8214 18.2381 18.5285 18.5309C18.2356 18.8238 17.7608 18.8238 17.4679 18.5309L6.75396 7.81703L6.75168 14.9939C6.75155 15.408 6.41558 15.7436 6.00128 15.7435C5.58698 15.7434 5.25123 15.4075 5.25136 14.9934L5.2542 6.06086C5.23845 5.8506 5.31097 5.63496 5.47176 5.47417C5.4808 5.46513 5.49001 5.45638 5.49938 5.4479Z" fill="#344054"/>
</svg>
