<svg width="24" height="24" viewBox="0 0 24 24" fill="none" xmlns="http://www.w3.org/2000/svg">
<path fill-rule="evenodd" clip-rule="evenodd" d="M20.751 11.9983C20.7514 12.1906 20.6782 12.3831 20.5315 12.5299L14.5355 18.5301C14.2427 18.8231 13.7678 18.8233 13.4748 18.5305C13.1818 18.2377 13.1817 17.7629 13.4745 17.4699L18.1944 12.7466L3.99962 12.7466C3.58541 12.7466 3.24962 12.4108 3.24962 11.9966C3.24962 11.5824 3.58541 11.2466 3.99962 11.2466L18.1879 11.2466L13.4745 6.53016C13.1817 6.23717 13.1818 5.7623 13.4748 5.4695C13.7678 5.1767 14.2427 5.17685 14.5355 5.46984L20.4884 11.4266C20.6491 11.5641 20.751 11.7685 20.751 11.9966C20.751 11.9971 20.751 11.9977 20.751 11.9983Z" fill="#344054"/>
</svg>
