<svg width="24" height="24" viewBox="0 0 24 24" fill="none" xmlns="http://www.w3.org/2000/svg">
<path fill-rule="evenodd" clip-rule="evenodd" d="M18.4778 5.42852C18.3475 5.31896 18.1793 5.25294 17.9956 5.25288L9.00024 5.24973C8.58594 5.24958 8.24996 5.58518 8.24981 5.9993C8.24967 6.41343 8.58541 6.74926 8.99971 6.74941L16.1896 6.75193L5.4711 17.4704C5.17821 17.7633 5.17821 18.2382 5.4711 18.5311C5.764 18.824 6.23887 18.824 6.53176 18.5311L17.2458 7.81708L17.248 14.9942C17.2482 15.4083 17.5841 15.7439 17.9984 15.7438C18.4127 15.7437 18.7485 15.4079 18.7484 14.9937L18.7455 6.05986C18.7609 5.84996 18.6884 5.63481 18.5279 5.47431C18.5117 5.45815 18.495 5.44289 18.4778 5.42852Z" fill="#344054"/>
</svg>
