<svg width="24" height="24" viewBox="0 0 24 24" fill="none" xmlns="http://www.w3.org/2000/svg">
<path fill-rule="evenodd" clip-rule="evenodd" d="M18.2265 18.8212C18.0962 18.9308 17.9279 18.9968 17.7443 18.9968L8.74892 19C8.33462 19.0001 7.99865 18.6645 7.9985 18.2504C7.99836 17.8363 8.3341 17.5005 8.7484 17.5003L15.9383 17.4978L5.21979 6.77931C4.9269 6.48641 4.9269 6.01154 5.21979 5.71865C5.51268 5.42575 5.98756 5.42575 6.28045 5.71865L16.9945 16.4326L16.9967 9.25552C16.9969 8.84139 17.3328 8.50578 17.7471 8.50591C18.1614 8.50605 18.4972 8.84187 18.4971 9.25599L18.4942 18.1899C18.5096 18.3998 18.4371 18.6149 18.2766 18.7754C18.2604 18.7916 18.2437 18.8068 18.2265 18.8212Z" fill="#344054"/>
</svg>
