<svg width="24" height="24" viewBox="0 0 24 24" fill="none" xmlns="http://www.w3.org/2000/svg">
<path fill-rule="evenodd" clip-rule="evenodd" d="M5.24802 18.8015C5.38125 18.9228 5.55836 18.9968 5.75275 18.9968L14.7481 19C15.1624 19.0001 15.4984 18.6645 15.4986 18.2504C15.4987 17.8363 15.163 17.5005 14.7487 17.5003L7.55849 17.4978L18.2772 6.77911C18.5701 6.48622 18.5701 6.01135 18.2772 5.71845C17.9843 5.42556 17.5094 5.42556 17.2165 5.71845L6.5026 16.4324L6.50032 9.25552C6.50019 8.84139 6.16422 8.50578 5.74992 8.50591C5.33562 8.50605 4.99987 8.84187 5 9.25599L5.00284 18.1885C4.98709 18.3988 5.05961 18.6144 5.2204 18.7752C5.22944 18.7843 5.23865 18.793 5.24802 18.8015Z" fill="#344054"/>
</svg>
