<svg width="24" height="24" viewBox="0 0 24 24" fill="none" xmlns="http://www.w3.org/2000/svg">
<path fill-rule="evenodd" clip-rule="evenodd" d="M20.75 4.00001C20.75 3.77689 20.6507 3.56536 20.479 3.42287C20.3073 3.28039 20.0811 3.22173 19.8618 3.26285L7.86178 5.51285C7.50705 5.57936 7.25 5.88909 7.25 6.25001V9.98484C7.24982 9.99437 7.24982 10.0039 7.25 10.0135V14.4585C6.70497 14.1636 6.05664 14 5.375 14C4.50075 14 3.68131 14.2691 3.06431 14.7392C2.4467 15.2098 2 15.9138 2 16.75C2 17.5862 2.4467 18.2902 3.06431 18.7608C3.68131 19.2309 4.50075 19.5 5.375 19.5C6.24925 19.5 7.06869 19.2309 7.68569 18.7608C8.29111 18.2995 8.7323 17.6139 8.74948 16.7993C8.74983 16.79 8.75 16.7806 8.75 16.7712V16.75V10.62L19.25 8.60938V12.2085C18.705 11.9136 18.0566 11.75 17.375 11.75C16.5008 11.75 15.6813 12.0191 15.0643 12.4892C14.4467 12.9598 14 13.6638 14 14.5C14 15.3362 14.4467 16.0402 15.0643 16.5108C15.6813 16.9809 16.5008 17.25 17.375 17.25C18.2492 17.25 19.0687 16.9809 19.6857 16.5108C20.2911 16.0495 20.7323 15.3639 20.7495 14.5493C20.7498 14.54 20.75 14.5306 20.75 14.5212V14.5V4.00001ZM19.25 14.5C19.25 14.2316 19.1091 13.9357 18.7766 13.6824C18.4436 13.4286 17.9505 13.25 17.375 13.25C16.7995 13.25 16.3064 13.4286 15.9734 13.6824C15.6409 13.9357 15.5 14.2316 15.5 14.5C15.5 14.7684 15.6409 15.0643 15.9734 15.3176C16.3064 15.5714 16.7995 15.75 17.375 15.75C17.9505 15.75 18.4436 15.5714 18.7766 15.3176C19.1091 15.0643 19.25 14.7684 19.25 14.5ZM6.77662 15.9324C7.10908 16.1857 7.25 16.4816 7.25 16.75C7.25 17.0184 7.10908 17.3143 6.77662 17.5676C6.44356 17.8214 5.9505 18 5.375 18C4.7995 18 4.30644 17.8214 3.97338 17.5676C3.64092 17.3143 3.5 17.0184 3.5 16.75C3.5 16.4816 3.64092 16.1857 3.97338 15.9324C4.30644 15.6786 4.7995 15.5 5.375 15.5C5.9505 15.5 6.44356 15.6786 6.77662 15.9324ZM19.25 7.08212V4.9037L8.75 6.87245V9.09276L19.25 7.08212Z" fill="#344054"/>
</svg>
