<svg width="24" height="24" viewBox="0 0 24 24" fill="none" xmlns="http://www.w3.org/2000/svg">
<path fill-rule="evenodd" clip-rule="evenodd" d="M12.75 2.75073C12.75 2.33652 12.4142 2.00073 12 2.00073C11.5858 2.00073 11.25 2.33652 11.25 2.75073V3.53776C7.46001 3.91406 4.5 7.11172 4.5 11.0007V17.5007H4C3.58579 17.5007 3.25 17.8365 3.25 18.2507C3.25 18.6649 3.58579 19.0007 4 19.0007H5.25H18.75H20C20.4142 19.0007 20.75 18.6649 20.75 18.2507C20.75 17.8365 20.4142 17.5007 20 17.5007H19.5V11.0007C19.5 7.11172 16.54 3.91406 12.75 3.53776V2.75073ZM18 17.5007V11.0007C18 7.68702 15.3137 5.00073 12 5.00073C8.68629 5.00073 6 7.68702 6 11.0007V17.5007H18ZM9.75 21.25C9.75 21.6642 10.0858 22 10.5 22H13.5C13.9142 22 14.25 21.6642 14.25 21.25C14.25 20.8358 13.9142 20.5 13.5 20.5H10.5C10.0858 20.5 9.75 20.8358 9.75 21.25Z" fill="#344054"/>
</svg>
