<svg width="24" height="24" viewBox="0 0 24 24" fill="none" xmlns="http://www.w3.org/2000/svg">
<path fill-rule="evenodd" clip-rule="evenodd" d="M19.591 3.53253C18.7124 2.65385 17.2877 2.65385 16.4091 3.53253L6.17192 13.7697C5.86351 14.0781 5.65138 14.4695 5.56136 14.8963L4.66088 19.165C4.60854 19.4131 4.6851 19.6709 4.8644 19.8502C5.04369 20.0295 5.30143 20.106 5.54953 20.0537L9.81831 19.1532C10.2451 19.0632 10.6365 18.8511 10.9449 18.5426L21.182 8.3055C22.0607 7.42682 22.0607 6.0022 21.182 5.12352L19.591 3.53253ZM17.4697 4.59319C17.7626 4.3003 18.2375 4.3003 18.5304 4.59319L20.1214 6.18418C20.4143 6.47707 20.4143 6.95195 20.1214 7.24484L18.7251 8.64109L16.0735 5.98944L17.4697 4.59319ZM15.0128 7.0501L7.23258 14.8303C7.12978 14.9331 7.05907 15.0636 7.02906 15.2059L6.36615 18.3484L9.5087 17.6855C9.65096 17.6555 9.78143 17.5848 9.88423 17.482L17.6645 9.70175L15.0128 7.0501Z" fill="#344054"/>
</svg>
