<svg width="24" height="24" viewBox="0 0 24 24" fill="none" xmlns="http://www.w3.org/2000/svg">
<path fill-rule="evenodd" clip-rule="evenodd" d="M8.09487 4.75075C7.68066 4.75075 7.34487 5.08653 7.34487 5.50075V7.79076H16.655V6.62237C16.655 6.4194 16.5728 6.2251 16.427 6.08383L15.2699 4.96222C15.13 4.82659 14.9427 4.75075 14.7479 4.75075H8.09487ZM18.155 7.79076V6.62237C18.155 6.01347 17.9082 5.43056 17.471 5.00677L16.3139 3.88515C15.8941 3.47828 15.3325 3.25075 14.7479 3.25075H8.09487C6.85223 3.25075 5.84487 4.25811 5.84487 5.50075V7.79076H5.50043C4.25779 7.79076 3.25043 8.79813 3.25043 10.0408V13.9593C3.25043 15.2019 4.25778 16.2093 5.50043 16.2093H5.84467V18.4997C5.84467 19.7424 6.85202 20.7497 8.09467 20.7497H15.9048C17.1475 20.7497 18.1548 19.7424 18.1548 18.4997V16.2093H18.4995C19.7421 16.2093 20.7495 15.2019 20.7495 13.9593V10.0408C20.7495 8.79812 19.7421 7.79076 18.4995 7.79076H18.155ZM5.84467 13.9461V14.7093H5.50043C5.08621 14.7093 4.75043 14.3735 4.75043 13.9593V10.0408C4.75043 9.62655 5.08621 9.29076 5.50043 9.29076H18.4995C18.9137 9.29076 19.2495 9.62655 19.2495 10.0408V13.9593C19.2495 14.3735 18.9137 14.7093 18.4995 14.7093H18.1548V13.9461C18.1548 13.5318 17.819 13.1961 17.4048 13.1961H6.59467C6.18045 13.1961 5.84467 13.5318 5.84467 13.9461ZM7.34467 14.6961V18.4997C7.34467 18.914 7.68045 19.2497 8.09467 19.2497H15.9048C16.319 19.2497 16.6548 18.914 16.6548 18.4997V14.6961H7.34467Z" fill="#344054"/>
</svg>
