<svg width="24" height="24" viewBox="0 0 24 24" fill="none" xmlns="http://www.w3.org/2000/svg">
<path fill-rule="evenodd" clip-rule="evenodd" d="M3.50021 11.2486C3.50021 6.96966 6.96984 3.50061 11.2502 3.50061C15.5306 3.50061 19.0002 6.96966 19.0002 11.2486C19.0002 15.5275 15.5306 18.9965 11.2502 18.9965C6.96984 18.9965 3.50021 15.5275 3.50021 11.2486ZM11.2502 2.00061C6.14175 2.00061 2.00021 6.1409 2.00021 11.2486C2.00021 16.3563 6.14175 20.4965 11.2502 20.4965C13.5337 20.4965 15.6239 19.6693 17.2374 18.2982L20.7186 21.7797C21.0115 22.0726 21.4864 22.0726 21.7793 21.7798C22.0722 21.4869 22.0722 21.012 21.7793 20.7191L18.2985 17.2379C19.6716 15.6243 20.5002 13.5332 20.5002 11.2486C20.5002 6.1409 16.3587 2.00061 11.2502 2.00061Z" fill="#344054"/>
</svg>
