<svg width="24" height="24" viewBox="0 0 24 24" fill="none" xmlns="http://www.w3.org/2000/svg">
<path fill-rule="evenodd" clip-rule="evenodd" d="M5.20714 2.73701C3.33565 1.8645 1.37558 3.76282 2.18775 5.66127L4.77341 11.7052C4.85401 11.8936 4.85401 12.1068 4.77341 12.2952L2.18775 18.3391C1.37558 20.2376 3.33566 22.1359 5.20714 21.2634L20.7019 14.0395C22.4343 13.2318 22.4343 10.7686 20.7019 9.96093L5.20714 2.73701ZM3.56685 5.07127C3.29612 4.43846 3.94948 3.80568 4.57331 4.09652L20.0681 11.3204C20.6455 11.5897 20.6455 12.4107 20.0681 12.6799L4.57331 19.9039C3.94948 20.1947 3.29612 19.5619 3.56685 18.9291L6.15251 12.8852C6.17208 12.8394 6.19006 12.7932 6.20646 12.7466L10.9414 12.7466C11.3556 12.7466 11.6914 12.4108 11.6914 11.9966C11.6914 11.5824 11.3556 11.2466 10.9414 11.2466L6.20391 11.2466C6.1882 11.2024 6.17107 11.1586 6.15251 11.1152L3.56685 5.07127Z" fill="#344054"/>
</svg>
