<svg width="24" height="24" viewBox="0 0 24 24" fill="none" xmlns="http://www.w3.org/2000/svg">
<path fill-rule="evenodd" clip-rule="evenodd" d="M12.0016 3.25C11.7856 3.25 11.5909 3.34131 11.454 3.48744L6.84444 8.0941C6.55146 8.3869 6.55131 8.86177 6.84411 9.15476C7.1369 9.44775 7.61178 9.4479 7.90477 9.1551L11.2516 5.81043V16C11.2516 16.4142 11.5873 16.75 12.0016 16.75C12.4158 16.75 12.7516 16.4142 12.7516 16V5.81455L16.0945 9.15511C16.3875 9.4479 16.8623 9.44774 17.1551 9.15474C17.4479 8.86175 17.4477 8.38687 17.1547 8.09408L12.5798 3.52236C12.4423 3.356 12.2343 3.25 12.0016 3.25ZM4.74957 16C4.74957 15.5858 4.41379 15.25 3.99957 15.25C3.58536 15.25 3.24957 15.5858 3.24957 16V18.5C3.24957 19.7426 4.25693 20.75 5.49957 20.75H18.5004C19.7431 20.75 20.7504 19.7426 20.7504 18.5V16C20.7504 15.5858 20.4147 15.25 20.0004 15.25C19.5862 15.25 19.2504 15.5858 19.2504 16V18.5C19.2504 18.9142 18.9147 19.25 18.5004 19.25H5.49957C5.08536 19.25 4.74957 18.9142 4.74957 18.5V16Z" fill="#344054"/>
</svg>
