<svg width="24" height="24" viewBox="0 0 24 24" fill="none" xmlns="http://www.w3.org/2000/svg">
<path fill-rule="evenodd" clip-rule="evenodd" d="M5.5 3.25C4.25736 3.25 3.25 4.25736 3.25 5.5V8V18.5C3.25 19.7426 4.25736 20.75 5.5 20.75H18.5C19.7426 20.75 20.75 19.7426 20.75 18.5V16V12V9.5C20.75 8.25736 19.7426 7.25 18.5 7.25H18.25V5.5C18.25 4.25736 17.2426 3.25 16 3.25H5.5ZM16.75 7.25V5.5C16.75 5.08579 16.4142 4.75 16 4.75H5.5C5.08579 4.75 4.75 5.08579 4.75 5.5V7.25H16.75ZM4.75 8.75V18.5C4.75 18.9142 5.08579 19.25 5.5 19.25H18.5C18.9142 19.25 19.25 18.9142 19.25 18.5V16.75H16.75C15.5074 16.75 14.5 15.7426 14.5 14.5V13.5C14.5 12.2574 15.5074 11.25 16.75 11.25H19.25V9.5C19.25 9.08579 18.9142 8.75 18.5 8.75H17.5H4.75ZM19.25 12.75V15.25H16.75C16.3358 15.25 16 14.9142 16 14.5V13.5C16 13.0858 16.3358 12.75 16.75 12.75H19.25Z" fill="#344054"/>
</svg>
